<svg width="170" height="24" viewBox="0 0 170 24" fill="none" xmlns="http://www.w3.org/2000/svg">
<path d="M58.0075 23.0266C58.0075 23.1528 57.9591 23.2633 57.8623 23.358C57.7654 23.4527 57.6525 23.5001 57.5234 23.5001H56.3614C56.2323 23.5001 56.1194 23.4527 56.0225 23.358C55.9257 23.2633 55.8773 23.1528 55.8773 23.0266V15.2372C55.8773 14.6374 55.8208 14.1402 55.7079 13.7456C55.611 13.3352 55.4496 13.0116 55.2237 12.7749C55.0139 12.5381 54.7396 12.3724 54.4007 12.2777C54.0618 12.1672 53.6664 12.112 53.2145 12.112C52.6981 12.112 52.1656 12.1988 51.6169 12.3724C51.0682 12.546 50.5114 12.767 49.9466 13.0353V23.0266C49.9466 23.1528 49.8982 23.2633 49.8014 23.358C49.7045 23.4527 49.5916 23.5001 49.4625 23.5001H48.2763C48.1472 23.5001 48.0343 23.4527 47.9374 23.358C47.8568 23.2633 47.8164 23.1528 47.8164 23.0266V10.9518C47.8164 10.8256 47.8568 10.7151 47.9374 10.6204C48.0343 10.5257 48.1472 10.4783 48.2763 10.4783H49.4867C49.6158 10.4783 49.7207 10.5257 49.8014 10.6204C49.8982 10.7151 49.9466 10.8256 49.9466 10.9518V11.4017C50.6244 11.0386 51.2538 10.7703 51.8347 10.5967C52.4157 10.4073 53.0693 10.3126 53.7955 10.3126C55.2641 10.3126 56.3292 10.7387 56.9908 11.5911C57.6686 12.4434 58.0075 13.6588 58.0075 15.2372V23.0266Z" fill="white"/>
<path d="M71.5547 17.1313C71.5547 17.4785 71.4014 17.6521 71.0947 17.6521H62.9854V17.9836C62.9854 19.3884 63.2678 20.3828 63.8327 20.9668C64.3975 21.5508 65.2367 21.8428 66.3502 21.8428C67.0602 21.8428 67.8107 21.8191 68.6014 21.7717C69.4083 21.7244 70.0942 21.6613 70.659 21.5823H70.78C70.8769 21.5823 70.9656 21.606 71.0463 21.6534C71.127 21.7007 71.1674 21.7875 71.1674 21.9138V22.7188C71.1674 22.8766 71.1351 23.0029 71.0705 23.0976C71.006 23.1765 70.8769 23.2318 70.6832 23.2633C69.9893 23.3896 69.2954 23.4843 68.6014 23.5474C67.9236 23.6264 67.1732 23.6658 66.3502 23.6658C65.6562 23.6658 64.9785 23.579 64.3168 23.4054C63.6551 23.216 63.0661 22.9082 62.5497 22.482C62.0494 22.0401 61.6379 21.4561 61.3151 20.73C61.0085 20.0039 60.8552 19.0885 60.8552 17.9836V15.8528C60.8552 14.1481 61.3151 12.7986 62.235 11.8042C63.1549 10.8098 64.4863 10.3126 66.2291 10.3126C67.1167 10.3126 67.8914 10.4467 68.553 10.7151C69.2147 10.9676 69.7634 11.3385 70.1991 11.8278C70.6509 12.3014 70.9898 12.8854 71.2158 13.5799C71.4417 14.2586 71.5547 15.0162 71.5547 15.8528V17.1313ZM69.4002 15.8528C69.4002 14.5111 69.134 13.5562 68.6014 12.988C68.085 12.4197 67.2943 12.1356 66.2291 12.1356C65.1802 12.1356 64.3733 12.4355 63.8085 13.0353C63.2598 13.6351 62.9854 14.5743 62.9854 15.8528V16.0658H69.4002V15.8528Z" fill="white"/>
<path d="M84.2249 10.8808C84.2249 10.9439 84.2168 10.9992 84.2007 11.0465L80.9327 22.3163C80.7714 22.8529 80.497 23.216 80.1097 23.4054C79.7224 23.579 79.2705 23.6658 78.7541 23.6658C78.2377 23.6658 77.7859 23.579 77.3985 23.4054C77.0112 23.216 76.7369 22.8529 76.5755 22.3163L73.3076 11.0465C73.2914 10.9992 73.2834 10.9439 73.2834 10.8808C73.2834 10.6125 73.4125 10.4783 73.6707 10.4783H75.0021C75.2119 10.4783 75.3652 10.6283 75.462 10.9282L78.2458 21.2509C78.3265 21.535 78.3991 21.7244 78.4636 21.8191C78.5282 21.898 78.625 21.9375 78.7541 21.9375C78.8671 21.9375 78.9559 21.898 79.0204 21.8191C79.1011 21.7244 79.1818 21.535 79.2625 21.2509L82.0463 10.9282C82.1431 10.6283 82.2964 10.4783 82.5062 10.4783H83.8376C84.0958 10.4783 84.2249 10.6125 84.2249 10.8808Z" fill="white"/>
<path d="M96.6126 17.1313C96.6126 17.4785 96.4593 17.6521 96.1526 17.6521H88.0433V17.9836C88.0433 19.3884 88.3257 20.3828 88.8906 20.9668C89.4554 21.5508 90.2946 21.8428 91.4081 21.8428C92.1182 21.8428 92.8686 21.8191 93.6593 21.7717C94.4662 21.7244 95.1521 21.6613 95.7169 21.5823H95.8379C95.9348 21.5823 96.0235 21.606 96.1042 21.6534C96.1849 21.7007 96.2253 21.7875 96.2253 21.9138V22.7188C96.2253 22.8766 96.193 23.0029 96.1284 23.0976C96.0639 23.1765 95.9348 23.2318 95.7411 23.2633C95.0472 23.3896 94.3533 23.4843 93.6593 23.5474C92.9815 23.6264 92.2311 23.6658 91.4081 23.6658C90.7142 23.6658 90.0364 23.579 89.3747 23.4054C88.7131 23.216 88.124 22.9082 87.6076 22.482C87.1073 22.0401 86.6958 21.4561 86.3731 20.73C86.0664 20.0039 85.9131 19.0885 85.9131 17.9836V15.8528C85.9131 14.1481 86.3731 12.7986 87.2929 11.8042C88.2128 10.8098 89.5442 10.3126 91.2871 10.3126C92.1746 10.3126 92.9493 10.4467 93.6109 10.7151C94.2726 10.9676 94.8213 11.3385 95.257 11.8278C95.7089 12.3014 96.0477 12.8854 96.2737 13.5799C96.4996 14.2586 96.6126 15.0162 96.6126 15.8528V17.1313ZM94.4582 15.8528C94.4582 14.5111 94.1919 13.5562 93.6593 12.988C93.1429 12.4197 92.3522 12.1356 91.2871 12.1356C90.2381 12.1356 89.4312 12.4355 88.8664 13.0353C88.3177 13.6351 88.0433 14.5743 88.0433 15.8528V16.0658H94.4582V15.8528Z" fill="white"/>
<path d="M105.495 11.7095C105.495 11.9778 105.326 12.112 104.987 12.112C104.422 12.112 103.873 12.1909 103.341 12.3487C102.824 12.4908 102.26 12.7433 101.646 13.1063V23.0266C101.646 23.1528 101.598 23.2633 101.501 23.358C101.404 23.4527 101.291 23.5001 101.162 23.5001H99.976C99.8469 23.5001 99.7339 23.4527 99.6371 23.358C99.5564 23.2633 99.5161 23.1528 99.5161 23.0266V10.9518C99.5161 10.8256 99.5564 10.7151 99.6371 10.6204C99.7339 10.5257 99.8469 10.4783 99.976 10.4783H101.114C101.243 10.4783 101.348 10.5257 101.428 10.6204C101.525 10.7151 101.574 10.8256 101.574 10.9518V11.449C102.187 11.0386 102.768 10.7466 103.317 10.573C103.881 10.3994 104.438 10.3126 104.987 10.3126C105.326 10.3126 105.495 10.4546 105.495 10.7387V11.7095Z" fill="white"/>
<path d="M123.815 23.0266C123.815 23.1528 123.766 23.2633 123.67 23.358C123.573 23.4527 123.46 23.5001 123.331 23.5001H122.169C122.04 23.5001 121.927 23.4527 121.83 23.358C121.733 23.2633 121.685 23.1528 121.685 23.0266V14.6453C121.685 14.156 121.628 13.7456 121.515 13.4141C121.402 13.0827 121.249 12.8222 121.055 12.6328C120.862 12.4434 120.628 12.3093 120.353 12.2303C120.079 12.1514 119.788 12.112 119.482 12.112C119.046 12.112 118.578 12.1751 118.078 12.3014C117.594 12.4276 117.118 12.5776 116.65 12.7512C116.795 13.2721 116.867 13.8876 116.867 14.5979V23.0266C116.867 23.1528 116.827 23.2633 116.746 23.358C116.666 23.4527 116.561 23.5001 116.432 23.5001H115.149C115.02 23.5001 114.915 23.4527 114.834 23.358C114.77 23.2633 114.737 23.1528 114.737 23.0266V14.5979C114.737 14.0771 114.697 13.6588 114.616 13.3431C114.552 13.0116 114.439 12.7591 114.277 12.5855C114.116 12.3961 113.914 12.2698 113.672 12.2067C113.446 12.1435 113.18 12.112 112.873 12.112C112.438 12.112 111.962 12.2067 111.445 12.3961C110.945 12.5697 110.437 12.7828 109.92 13.0353V23.0266C109.92 23.1528 109.88 23.2633 109.799 23.358C109.718 23.4527 109.613 23.5001 109.484 23.5001H108.201C108.072 23.5001 107.967 23.4527 107.887 23.358C107.822 23.2633 107.79 23.1528 107.79 23.0266V10.9518C107.79 10.8256 107.83 10.7151 107.911 10.6204C108.008 10.5257 108.121 10.4783 108.25 10.4783H109.46C109.589 10.4783 109.694 10.5257 109.775 10.6204C109.872 10.7151 109.92 10.8256 109.92 10.9518V11.4017C110.404 11.1018 110.945 10.8413 111.542 10.6204C112.139 10.3994 112.777 10.2889 113.454 10.2889C113.971 10.2889 114.423 10.3678 114.81 10.5257C115.213 10.6677 115.568 10.9124 115.875 11.2596C116.553 10.9439 117.231 10.7072 117.908 10.5493C118.602 10.3757 119.264 10.2889 119.893 10.2889C120.442 10.2889 120.95 10.3599 121.418 10.502C121.903 10.644 122.322 10.8887 122.677 11.2359C123.032 11.5674 123.307 12.0172 123.5 12.5855C123.71 13.1379 123.815 13.8245 123.815 14.6453V23.0266Z" fill="white"/>
<path d="M129.548 7.92131C129.548 8.04758 129.5 8.15807 129.403 8.25277C129.306 8.34747 129.193 8.39483 129.064 8.39483H127.83C127.701 8.39483 127.588 8.34747 127.491 8.25277C127.394 8.15807 127.345 8.04758 127.345 7.92131V6.02723C127.345 5.90096 127.394 5.79047 127.491 5.69577C127.588 5.60106 127.701 5.55371 127.83 5.55371H129.064C129.193 5.55371 129.306 5.60106 129.403 5.69577C129.5 5.79047 129.548 5.90096 129.548 6.02723V7.92131ZM129.5 23.0266C129.5 23.1528 129.451 23.2633 129.355 23.358C129.258 23.4527 129.145 23.5001 129.016 23.5001H127.854C127.725 23.5001 127.612 23.4527 127.515 23.358C127.418 23.2633 127.37 23.1528 127.37 23.0266V10.9518C127.37 10.8256 127.418 10.7151 127.515 10.6204C127.612 10.5257 127.725 10.4783 127.854 10.4783H129.016C129.145 10.4783 129.258 10.5257 129.355 10.6204C129.451 10.7151 129.5 10.8256 129.5 10.9518V23.0266Z" fill="white"/>
<path d="M143.275 23.0266C143.275 23.1528 143.227 23.2633 143.13 23.358C143.033 23.4527 142.92 23.5001 142.791 23.5001H141.629C141.5 23.5001 141.387 23.4527 141.29 23.358C141.194 23.2633 141.145 23.1528 141.145 23.0266V15.2372C141.145 14.6374 141.089 14.1402 140.976 13.7456C140.879 13.3352 140.717 13.0116 140.492 12.7749C140.282 12.5381 140.007 12.3724 139.668 12.2777C139.33 12.1672 138.934 12.112 138.482 12.112C137.966 12.112 137.433 12.1988 136.885 12.3724C136.336 12.546 135.779 12.767 135.214 13.0353V23.0266C135.214 23.1528 135.166 23.2633 135.069 23.358C134.972 23.4527 134.859 23.5001 134.73 23.5001H133.544C133.415 23.5001 133.302 23.4527 133.205 23.358C133.125 23.2633 133.084 23.1528 133.084 23.0266V10.9518C133.084 10.8256 133.125 10.7151 133.205 10.6204C133.302 10.5257 133.415 10.4783 133.544 10.4783H134.754C134.884 10.4783 134.988 10.5257 135.069 10.6204C135.166 10.7151 135.214 10.8256 135.214 10.9518V11.4017C135.892 11.0386 136.522 10.7703 137.103 10.5967C137.684 10.4073 138.337 10.3126 139.063 10.3126C140.532 10.3126 141.597 10.7387 142.259 11.5911C142.936 12.4434 143.275 13.6588 143.275 15.2372V23.0266Z" fill="white"/>
<path d="M156.822 17.1313C156.822 17.4785 156.669 17.6521 156.363 17.6521H148.253V17.9836C148.253 19.3884 148.536 20.3828 149.1 20.9668C149.665 21.5508 150.504 21.8428 151.618 21.8428C152.328 21.8428 153.078 21.8191 153.869 21.7717C154.676 21.7244 155.362 21.6613 155.927 21.5823H156.048C156.145 21.5823 156.233 21.606 156.314 21.6534C156.395 21.7007 156.435 21.7875 156.435 21.9138V22.7188C156.435 22.8766 156.403 23.0029 156.338 23.0976C156.274 23.1765 156.145 23.2318 155.951 23.2633C155.257 23.3896 154.563 23.4843 153.869 23.5474C153.191 23.6264 152.441 23.6658 151.618 23.6658C150.924 23.6658 150.246 23.579 149.585 23.4054C148.923 23.216 148.334 22.9082 147.818 22.482C147.317 22.0401 146.906 21.4561 146.583 20.73C146.276 20.0039 146.123 19.0885 146.123 17.9836V15.8528C146.123 14.1481 146.583 12.7986 147.503 11.8042C148.423 10.8098 149.754 10.3126 151.497 10.3126C152.385 10.3126 153.159 10.4467 153.821 10.7151C154.482 10.9676 155.031 11.3385 155.467 11.8278C155.919 12.3014 156.258 12.8854 156.484 13.5799C156.71 14.2586 156.822 15.0162 156.822 15.8528V17.1313ZM154.668 15.8528C154.668 14.5111 154.402 13.5562 153.869 12.988C153.353 12.4197 152.562 12.1356 151.497 12.1356C150.448 12.1356 149.641 12.4355 149.076 13.0353C148.528 13.6351 148.253 14.5743 148.253 15.8528V16.0658H154.668V15.8528Z" fill="white"/>
<path d="M169.53 22.7188C169.53 22.8766 169.497 23.0029 169.433 23.0976C169.385 23.1765 169.247 23.2318 169.021 23.2633C168.263 23.4054 167.513 23.508 166.77 23.5711C166.044 23.6343 165.31 23.6658 164.567 23.6658C163.664 23.6658 162.881 23.5317 162.219 23.2633C161.558 22.9792 161.009 22.5846 160.573 22.0795C160.137 21.5744 159.815 20.9589 159.605 20.2328C159.395 19.5067 159.29 18.7018 159.29 17.8179V16.1132C159.29 14.2507 159.726 12.8222 160.597 11.8278C161.469 10.8177 162.792 10.3126 164.567 10.3126C164.939 10.3126 165.382 10.3363 165.899 10.3836C166.431 10.4152 166.932 10.4704 167.4 10.5493V6.14561C167.4 6.01934 167.44 5.91674 167.521 5.83782C167.617 5.74312 167.73 5.69577 167.859 5.69577H169.094C169.223 5.69577 169.328 5.74312 169.409 5.83782C169.489 5.91674 169.53 6.01934 169.53 6.14561V22.7188ZM167.4 12.3014C166.996 12.2224 166.52 12.1751 165.971 12.1593C165.423 12.1435 164.955 12.1356 164.567 12.1356C163.97 12.1356 163.47 12.2224 163.067 12.3961C162.663 12.5697 162.34 12.8301 162.098 13.1774C161.856 13.5088 161.679 13.9271 161.566 14.4322C161.469 14.9215 161.42 15.4818 161.42 16.1132V17.8179C161.42 19.1121 161.646 20.1065 162.098 20.801C162.55 21.4955 163.373 21.8428 164.567 21.8428C164.987 21.8428 165.455 21.827 165.971 21.7954C166.504 21.7638 166.98 21.7323 167.4 21.7007V12.3014Z" fill="white"/>
<path fill-rule="evenodd" clip-rule="evenodd" d="M12.9753 23.5478L0 11.8343V0L12.9753 11.7136V23.5478ZM25.9509 23.5478L12.9756 11.8343V0L25.9509 11.7136L38.686 0V11.8343L25.9509 23.5478Z" fill="white"/>
</svg>
